<svg width="64" height="64" viewBox="0 0 64 64" fill="none" xmlns="http://www.w3.org/2000/svg">
<path d="M4.24988 62.7488C5.90666 62.7488 7.24975 61.4057 7.24975 59.7489C7.24975 58.0921 5.90666 56.749 4.24988 56.749C2.59309 56.749 1.25 58.0921 1.25 59.7489C1.25 61.4057 2.59309 62.7488 4.24988 62.7488Z" fill="#89DDFF"/>
<path d="M59.7499 62.7488C61.4067 62.7488 62.7497 61.4057 62.7497 59.7489C62.7497 58.0921 61.4067 56.749 59.7499 56.749C58.0931 56.749 56.75 58.0921 56.75 59.7489C56.75 61.4057 58.0931 62.7488 59.7499 62.7488Z" fill="#EB5757"/>
<path d="M4.24988 7.25121C5.90666 7.25121 7.24975 5.90812 7.24975 4.25134C7.24975 2.59455 5.90666 1.25146 4.24988 1.25146C2.59309 1.25146 1.25 2.59455 1.25 4.25134C1.25 5.90812 2.59309 7.25121 4.24988 7.25121Z" fill="#F2C94C"/>
<path d="M59.7499 7.25121C61.4067 7.25121 62.7497 5.90812 62.7497 4.25134C62.7497 2.59455 61.4067 1.25146 59.7499 1.25146C58.0931 1.25146 56.75 2.59455 56.75 4.25134C56.75 5.90812 58.0931 7.25121 59.7499 7.25121Z" fill="#6FCF97"/>
<path d="M17.6209 12.4426L21.4289 14.7317L27.2631 12.3139L28.3376 8.00098H35.6606L36.7351 12.3139L42.5694 14.7317L46.3774 12.4426L51.5565 17.6219L49.2675 21.4299L51.6854 27.2641L55.9981 28.3386V35.6616L51.6854 36.736L49.2675 42.5704L51.5565 46.3782L46.3774 51.5575L42.5694 49.2685L36.7351 51.6863L35.6606 55.9991H28.3376L27.2631 51.6863L21.4289 49.2685L17.6209 51.5575L12.4417 46.3782L14.7308 42.5704L12.3129 36.736L8 35.6616V28.3386L12.3129 27.2641L14.7308 21.4299L12.4417 17.6219L17.6209 12.4426Z" fill="#89DDFF"/>
<path d="M31.9984 46.7497C40.1443 46.7497 46.7478 40.1462 46.7478 32.0004C46.7478 23.8545 40.1443 17.251 31.9984 17.251C23.8525 17.251 17.249 23.8545 17.249 32.0004C17.249 40.1462 23.8525 46.7497 31.9984 46.7497Z" fill="white"/>
<path d="M52.6275 45.7346L50.6632 42.4668L52.5985 37.7968L56.3 36.8746C56.857 36.736 57.2479 36.2357 57.2479 35.6617V33.2503H62.7476C63.438 33.2503 63.9976 32.6906 63.9976 32.0003C63.9976 31.31 63.438 30.7503 62.7476 30.7503H57.2479V28.3388C57.2479 27.7648 56.857 27.2647 56.3 27.1258L52.5985 26.2037L50.6632 21.5337L52.6275 18.266C52.9232 17.7741 52.8459 17.144 52.44 16.7381L47.2607 11.5588C46.8547 11.153 46.2246 11.0757 45.7329 11.3713L42.4651 13.3356L37.7951 11.4003L36.873 7.69884C36.7343 7.14184 36.234 6.75097 35.66 6.75097H33.2487V1.25146C33.2487 0.56109 32.6891 0.00146484 31.9988 0.00146484C31.3084 0.00146484 30.7488 0.56109 30.7488 1.25146V6.75121H28.3372C27.7632 6.75121 27.2631 7.14209 27.1243 7.69909L26.2021 11.4006L21.5321 13.3358L18.2644 11.3716C17.7723 11.0758 17.1424 11.1531 16.7365 11.5591L11.5573 16.7383C11.1514 17.1442 11.0741 17.7743 11.3698 18.2662L13.334 21.534L11.3988 26.204L7.69725 27.1261C7.14025 27.2648 6.74937 27.7651 6.74937 28.3391V30.7503H1.25C0.559625 30.7503 0 31.31 0 32.0003C0 32.6906 0.559625 33.2503 1.25 33.2503H6.74975V35.6618C6.74975 36.2358 7.14063 36.7361 7.69763 36.8747L11.3991 37.797L13.3344 42.467L11.37 45.7346C11.0742 46.2266 11.1516 46.8567 11.5575 47.2626L16.7367 52.4418C17.1426 52.8476 17.7727 52.9248 18.2647 52.6292L21.5324 50.665L26.2024 52.6002L27.1245 56.3016C27.2633 56.8586 27.7635 57.2495 28.3375 57.2495H30.7489V62.7492C30.7489 63.4395 31.3085 63.9992 31.9989 63.9992C32.6892 63.9992 33.2489 63.4395 33.2489 62.7492V57.2495H35.6604C36.2344 57.2495 36.7345 56.8586 36.8734 56.3016L37.7955 52.6002L42.4655 50.665L45.7331 52.6292C46.2251 52.9248 46.8551 52.8476 47.2611 52.4418L52.4404 47.2626C52.8458 46.8566 52.9231 46.2265 52.6275 45.7346ZM48.1959 43.2146L49.9816 46.1853L46.1838 49.9833L43.213 48.1976C42.8731 47.9932 42.4566 47.9622 42.0904 48.1141L36.2561 50.532C35.89 50.6837 35.6176 51 35.5218 51.3846L34.6834 54.7496H29.3139L28.4755 51.3846C28.3796 51 28.1073 50.6837 27.7411 50.532L21.9069 48.1141C21.5406 47.9622 21.1241 47.9932 20.7843 48.1976L17.8135 49.9833L14.0156 46.1853L15.8014 43.2146C16.0056 42.8747 16.0365 42.4582 15.8848 42.0921L13.467 36.2578C13.3153 35.8917 12.9989 35.6193 12.6144 35.5235L9.24938 34.685V29.3155L12.6145 28.4771C12.999 28.3812 13.3154 28.1088 13.4671 27.7427L15.8849 21.9085C16.0366 21.5422 16.0056 21.1257 15.8015 20.786L14.0157 17.8152L17.8136 14.0173L20.7844 15.8031C21.1241 16.0073 21.5406 16.0383 21.9069 15.8865L27.7411 13.4687C28.1073 13.317 28.3796 13.0006 28.4755 12.6161L29.3139 9.25096H34.6834L35.5218 12.6161C35.6176 13.0006 35.89 13.317 36.2561 13.4687L42.0904 15.8865C42.4567 16.0382 42.8731 16.0072 43.2129 15.8031L46.1836 14.0173L49.9815 17.8152L48.1958 20.786C47.9915 21.1257 47.9606 21.5422 48.1124 21.9085L50.5301 27.7427C50.6819 28.1088 50.9983 28.3812 51.3828 28.4771L54.7479 29.3155V34.685L51.3828 35.5235C50.9983 35.6193 50.6819 35.8917 50.5301 36.2578L48.1124 42.0921C47.9606 42.4583 47.9916 42.8748 48.1959 43.2146Z" fill="black"/>
<path d="M37.5108 16.9757C36.8628 16.7382 36.1445 17.0704 35.9068 17.7184C35.6689 18.3665 36.0015 19.0847 36.6495 19.3225C41.942 21.2649 45.4979 26.3595 45.4979 31.9998C45.4979 39.4435 39.442 45.4993 31.9984 45.4993C24.5548 45.4993 18.4989 39.4434 18.4989 31.9997C18.4989 26.6627 21.6524 21.8159 26.5325 19.6522C27.1636 19.3724 27.4484 18.6339 27.1685 18.0028C26.8888 17.3718 26.1501 17.0869 25.5193 17.3668C19.736 19.9309 15.999 25.6747 15.999 31.9995C15.999 40.8215 23.1763 47.9989 31.9984 47.9989C40.8205 47.9989 47.9978 40.8217 47.9978 31.9997C47.9978 25.3154 43.7833 19.2777 37.5108 16.9757Z" fill="black"/>
<path d="M31.999 18.5005L32.0579 18.5006C32.0591 18.5006 32.0604 18.5006 32.0616 18.5006C32.7503 18.5006 33.3095 17.9434 33.3116 17.2542C33.3136 16.5639 32.7556 16.0026 32.0653 16.0006L31.999 16.0005C31.3086 16.0005 30.749 16.5601 30.749 17.2505C30.749 17.9409 31.3086 18.5005 31.999 18.5005Z" fill="black"/>
<path d="M41.9561 35.5635V28.2778C41.9561 27.5875 41.3964 27.0278 40.7061 27.0278C40.0157 27.0278 39.4561 27.5875 39.4561 28.2778V35.5635C39.4561 36.2537 40.0157 36.8135 40.7061 36.8135C41.3964 36.8135 41.9561 36.2537 41.9561 35.5635Z" fill="black"/>
<path d="M30.8203 28.2777V30.77V32.4752V35.5633C30.8203 36.2536 31.3799 36.8133 32.0703 36.8133C32.7607 36.8133 33.3203 36.2536 33.3203 35.5633V33.7252H34.6457C36.3894 33.7252 37.8082 32.3063 37.8082 30.5627V30.1903C37.8082 28.4466 36.3894 27.0278 34.6457 27.0278H32.0704C31.3799 27.0278 30.8203 27.5873 30.8203 28.2777ZM33.3203 29.5277H34.6457C35.0111 29.5277 35.3083 29.825 35.3083 30.1903V30.5627C35.3083 30.9281 35.0111 31.2253 34.6457 31.2253H33.3203V30.7701V29.5277Z" fill="black"/>
<path d="M25.1237 27.0278C24.6238 27.0278 24.172 27.3256 23.9749 27.785L20.7667 35.2617C20.4944 35.8961 20.788 36.6311 21.4225 36.9032C22.057 37.1753 22.7919 36.8818 23.064 36.2474L25.1235 31.4477L27.1832 36.2474C27.3864 36.7212 27.8477 37.0049 28.3324 37.0049C28.4968 37.0049 28.664 36.9722 28.8247 36.9033C29.459 36.6311 29.7527 35.8961 29.4804 35.2618L26.2722 27.7851C26.0753 27.3255 25.6235 27.0278 25.1237 27.0278Z" fill="black"/>
<path d="M52.0959 13.153C52.4158 13.153 52.7358 13.031 52.9798 12.7868L57.7612 8.00534C58.355 8.32121 59.0319 8.50109 59.75 8.50109C62.0934 8.50109 63.9999 6.59471 63.9999 4.25121C63.9999 1.90772 62.0935 0.00146484 59.75 0.00146484C57.4065 0.00146484 55.5002 1.90784 55.5002 4.25134C55.5002 4.96834 55.6793 5.64397 55.9942 6.23684L51.2118 11.0191C50.7237 11.5072 50.7237 12.2987 51.2118 12.7868C51.456 13.031 51.776 13.153 52.0959 13.153ZM59.75 2.50134C60.715 2.50134 61.4999 3.28634 61.4999 4.25121C61.4999 5.21609 60.7149 6.00109 59.75 6.00109C58.785 6.00109 58.0002 5.21609 58.0002 4.25121C58.0002 3.28634 58.7852 2.50134 59.75 2.50134Z" fill="black"/>
<path d="M11.0177 51.2127L6.23725 55.9934C5.64375 55.6781 4.9675 55.4986 4.25 55.4986C1.90637 55.4986 0 57.4049 0 59.7483C0 62.0917 1.90638 63.9982 4.24988 63.9982C6.59337 63.9982 8.49975 62.0918 8.49975 59.7483C8.49975 59.0307 8.32025 58.3544 8.00488 57.7611L12.7855 52.9803C13.2736 52.4922 13.2736 51.7007 12.7855 51.2126C12.2972 50.7247 11.5057 50.7247 11.0177 51.2127ZM4.24988 61.4983C3.28488 61.4983 2.5 60.7133 2.5 59.7484C2.5 58.7836 3.285 57.9986 4.24988 57.9986C5.21475 57.9986 5.99975 58.7836 5.99975 59.7484C5.99975 60.7133 5.21475 61.4983 4.24988 61.4983Z" fill="black"/>
<path d="M52.0957 50.8462C51.767 50.8462 51.4445 50.9798 51.212 51.2124C50.9795 51.4448 50.8457 51.7673 50.8457 52.0962C50.8457 52.4249 50.9795 52.7474 51.212 52.9798C51.4445 53.2123 51.767 53.3462 52.0957 53.3462C52.4257 53.3462 52.747 53.2124 52.9807 52.9798C53.2132 52.7474 53.3457 52.4261 53.3457 52.0962C53.3457 51.7673 53.2132 51.4448 52.9807 51.2124C52.7468 50.9799 52.4245 50.8462 52.0957 50.8462Z" fill="black"/>
<path d="M59.75 55.499C59.0318 55.499 58.3549 55.6788 57.7611 55.9948L55.6494 53.883C55.1613 53.3952 54.3698 53.395 53.8818 53.883C53.3936 54.3712 53.3935 55.1627 53.8818 55.6508L55.9943 57.7634C55.6795 58.3565 55.5003 59.0322 55.5003 59.7489C55.5003 62.0923 57.4066 63.9988 59.7501 63.9988C62.0936 63.9988 63.9999 62.0924 63.9999 59.7489C63.9999 57.4054 62.0935 55.499 59.75 55.499ZM59.75 61.4988C58.785 61.4988 58.0001 60.7138 58.0001 59.7489C58.0001 58.784 58.7851 57.999 59.75 57.999C60.715 57.999 61.4999 58.784 61.4999 59.7489C61.4999 60.7138 60.715 61.4988 59.75 61.4988Z" fill="black"/>
<path d="M4.24988 8.50109C4.9675 8.50109 5.64375 8.32159 6.23712 8.00621L11.0177 12.7867C11.2619 13.0308 11.5817 13.1528 11.9016 13.1528C12.2215 13.1528 12.5415 13.0308 12.7855 12.7867C13.2736 12.2986 13.2736 11.5071 12.7855 11.019L8.00475 6.23859C8.32013 5.64509 8.49963 4.96884 8.49963 4.25134C8.49963 1.90796 6.59325 0.00146484 4.24975 0.00146484C1.90625 0.00146484 0 1.90784 0 4.25134C0 6.59484 1.90638 8.50109 4.24988 8.50109ZM4.24988 2.50134C5.21488 2.50134 5.99975 3.28634 5.99975 4.25121C5.99975 5.21609 5.21475 6.00109 4.24988 6.00109C3.285 6.00109 2.5 5.21609 2.5 4.25121C2.5 3.28634 3.28488 2.50134 4.24988 2.50134Z" fill="black"/>
</svg>
