<svg width="64" height="64" viewBox="0 0 64 64" fill="none" xmlns="http://www.w3.org/2000/svg">
<path d="M61.6386 38.7731L59.431 37.4985C59.8017 35.6545 59.9893 33.808 59.9893 32C59.9893 30.1657 59.8047 28.3174 59.4403 26.496L61.6386 25.2268C62.3194 24.8338 62.8065 24.199 63.0099 23.4397C63.2133 22.6803 63.1089 21.8871 62.7158 21.2063L56.704 10.7936C56.3109 10.1128 55.6763 9.62568 54.9169 9.42228C54.1574 9.21888 53.3644 9.32321 52.6834 9.71635L50.4834 10.9866C47.7043 8.54168 44.4337 6.64949 40.9522 5.47219V2.94325C40.9522 1.32033 39.6318 0 38.0089 0H25.9854C24.3625 0 23.0422 1.32033 23.0422 2.94325V5.47231C19.5792 6.64485 16.313 8.53955 13.5237 10.9941L11.3108 9.71635C10.6298 9.32321 9.83663 9.21876 9.07727 9.42228C8.31791 9.6258 7.68329 10.1128 7.29015 10.7936L1.27841 21.2063C0.885267 21.8871 0.780938 22.6803 0.984335 23.4397C1.18773 24.199 1.67481 24.8338 2.35564 25.2268L4.5632 26.5014C4.19273 28.3454 4.00499 30.1918 4.00499 32C4.00499 33.8341 4.1896 35.6823 4.55406 37.5039L2.35576 38.7731C0.950269 39.5846 0.467075 41.3881 1.27841 42.7937L7.29015 53.2064C8.10161 54.6118 9.90513 55.0951 11.3108 54.2836L13.5107 53.0134C16.2899 55.4583 19.5604 57.3505 23.0422 58.5279V61.0568C23.0422 62.6797 24.3625 64 25.9854 64H38.0089C39.6318 64 40.9522 62.6797 40.9522 61.0568V58.5277C44.4153 57.3551 47.6814 55.4604 50.4707 53.006L52.6836 54.2836C54.0889 55.0951 55.8927 54.6118 56.7042 53.2064L62.7159 42.7937C63.5272 41.3881 63.0441 39.5846 61.6386 38.7731ZM61.0889 41.8544L55.0771 52.267C54.7837 52.7755 54.1313 52.9502 53.6229 52.6566L50.8184 51.0374C50.4621 50.8317 50.0131 50.8819 49.711 51.1613C46.8438 53.8131 43.394 55.8139 39.7349 56.9475C39.3416 57.0693 39.0735 57.433 39.0735 57.8447V61.0568C39.0735 61.6438 38.5959 62.1213 38.0089 62.1213H25.9854C25.3984 62.1213 24.9208 61.6438 24.9208 61.0568V57.8449C24.9208 57.4332 24.6527 57.0695 24.2595 56.9476C20.5779 55.807 17.1239 53.8087 14.2707 51.1689C14.0927 51.0042 13.8636 50.9191 13.6325 50.9191C13.4715 50.9191 13.3095 50.9604 13.1631 51.0449L10.3714 52.6566C9.86293 52.95 9.21065 52.7753 8.91721 52.267L2.90546 41.8544C2.61201 41.346 2.78686 40.6936 3.2951 40.4L6.08455 38.7895C6.44074 38.5839 6.62172 38.1706 6.53117 37.7693C6.10146 35.8647 5.88365 33.9235 5.88365 32C5.88365 30.1088 6.10471 28.1695 6.54081 26.236C6.63124 25.8348 6.45026 25.4214 6.09419 25.2159L3.2951 23.5998C3.04887 23.4577 2.87277 23.2281 2.79913 22.9535C2.72561 22.6788 2.76331 22.3919 2.90546 22.1456L8.91721 11.7329C9.05936 11.4867 9.28893 11.3105 9.56372 11.2369C9.83825 11.1633 10.1253 11.2011 10.3715 11.3433L13.176 12.9624C13.5325 13.1683 13.9813 13.118 14.2834 12.8386C17.1508 10.1868 20.6004 8.18599 24.2595 7.0524C24.6528 6.93054 24.921 6.56683 24.921 6.15515V2.94325C24.921 2.35623 25.3985 1.87867 25.9855 1.87867H38.009C38.596 1.87867 39.0736 2.35623 39.0736 2.94325V6.15515C39.0736 6.56683 39.3418 6.93054 39.7349 7.0524C43.4165 8.19288 46.8705 10.1912 49.7238 12.8311C50.0259 13.1106 50.4749 13.1608 50.8313 12.9551L53.623 11.3433C53.8694 11.2011 54.1563 11.1633 54.4309 11.2369C54.7055 11.3106 54.9351 11.4867 55.0774 11.7329L61.0891 22.1456C61.2313 22.3919 61.2691 22.6788 61.1954 22.9535C61.1218 23.2281 60.9457 23.4577 60.6995 23.5998L57.91 25.2104C57.5538 25.416 57.3728 25.8294 57.4634 26.2306C57.8931 28.1351 58.1109 30.0761 58.1109 32C58.1109 33.8912 57.8899 35.8305 57.4538 37.7639C57.3633 38.165 57.5443 38.5783 57.9004 38.784L60.6995 40.4C61.2076 40.6936 61.3824 41.346 61.0889 41.8544Z" fill="#EA6F5A"/>
<path d="M31.998 13.0254C21.5353 13.0254 13.0234 21.5374 13.0234 32C13.0234 42.4625 21.5353 50.9745 31.998 50.9745C42.4607 50.9745 50.9726 42.4625 50.9726 32C50.9726 21.5374 42.4607 13.0254 31.998 13.0254ZM31.998 49.0958C22.5713 49.0958 14.9021 41.4266 14.9021 32C14.9021 22.5733 22.5713 14.9041 31.998 14.9041C41.4247 14.9041 49.0939 22.5733 49.0939 32C49.0939 41.4266 41.4247 49.0958 31.998 49.0958Z" fill="#EA6F5A"/>
<path d="M35.5048 27.0527H31.9979C31.4792 27.0527 31.0586 27.4733 31.0586 27.9921V36.0077C31.0586 36.5265 31.4792 36.9471 31.9979 36.9471C32.5167 36.9471 32.9373 36.5265 32.9373 36.0077V33.9412H35.5048C37.404 33.9412 38.949 32.3962 38.949 30.497C38.949 28.5978 37.404 27.0527 35.5048 27.0527ZM35.5048 32.0625H32.9373V28.9314H35.5048C36.3681 28.9314 37.0703 29.6337 37.0703 30.497C37.0703 31.3603 36.3681 32.0625 35.5048 32.0625Z" fill="#EA6F5A"/>
<path d="M26.862 27.6623C26.7245 27.2957 26.374 27.0527 25.9825 27.0527H24.9806C24.5891 27.0527 24.2385 27.2956 24.1011 27.6623L21.0952 35.678C20.913 36.1637 21.1592 36.7051 21.6449 36.8873C22.1306 37.0695 22.6721 36.8233 22.8543 36.3376L23.3771 34.9431H27.5859L28.1088 36.3375C28.2502 36.7146 28.6082 36.9473 28.9884 36.9473C29.098 36.9473 29.2095 36.928 29.318 36.8873C29.8037 36.7052 30.05 36.1637 29.8677 35.678L26.862 27.6623ZM24.0816 33.0645L25.4816 29.3313L26.8815 33.0645H24.0816Z" fill="#EA6F5A"/>
<path d="M41.0175 27.0527C40.4987 27.0527 40.0781 27.4733 40.0781 27.9921V36.0077C40.0781 36.5265 40.4987 36.9471 41.0175 36.9471C41.5362 36.9471 41.9568 36.5265 41.9568 36.0077V27.9921C41.9568 27.4733 41.5362 27.0527 41.0175 27.0527Z" fill="#EA6F5A"/>
<path d="M38.7169 10.9336C39.3688 11.1414 40.0187 11.3827 40.6483 11.6508C40.7683 11.7019 40.893 11.726 41.0157 11.726C41.3809 11.726 41.7284 11.5116 41.8804 11.1544C42.0836 10.6771 41.8614 10.1254 41.3841 9.92226C40.7005 9.63131 39.9951 9.3693 39.2872 9.14374C38.7931 8.98618 38.2646 9.25921 38.1071 9.75343C37.9496 10.2476 38.2227 10.776 38.7169 10.9336Z" fill="#EA6F5A"/>
<path d="M12.5766 42.5707C12.3282 42.1153 11.7574 41.9475 11.3022 42.196C10.8468 42.4445 10.6789 43.0151 10.9274 43.4705C11.3172 44.1849 11.7486 44.8876 12.2098 45.5592C12.3919 45.8243 12.6859 45.9668 12.9849 45.9668C13.1682 45.9668 13.3533 45.9134 13.5159 45.8018C13.9436 45.5081 14.0522 44.9233 13.7585 44.4957C13.3335 43.8768 12.9358 43.2291 12.5766 42.5707Z" fill="#EA6F5A"/>
<path d="M30.0734 54.0234C25.0399 53.5897 20.2621 51.4084 16.6201 47.8813C16.2474 47.5203 15.6527 47.5299 15.2919 47.9026C14.9311 48.2753 14.9405 48.8699 15.3132 49.2308C19.2647 53.0576 24.4494 55.4244 29.9121 55.895C29.9395 55.8974 29.9667 55.8985 29.9937 55.8985C30.4761 55.8985 30.8864 55.5292 30.9286 55.0399C30.973 54.5231 30.5902 54.068 30.0734 54.0234Z" fill="#EA6F5A"/>
<path d="M45.5124 12.1849C45.0841 11.8922 44.4995 12.0021 44.2068 12.4304C43.9141 12.8587 44.0241 13.4432 44.4523 13.7359C48.8164 16.7183 51.9732 21.1564 53.3412 26.2323C53.4542 26.6514 53.8334 26.9274 54.2476 26.9274C54.3285 26.9274 54.4108 26.9169 54.4926 26.8948C54.9936 26.7598 55.2902 26.2443 55.1551 25.7435C53.6707 20.2352 50.2462 15.4201 45.5124 12.1849Z" fill="#EA6F5A"/>
</svg>
