<?xml version="1.0" encoding="UTF-8" standalone="no"?>
<!DOCTYPE svg PUBLIC "-//W3C//DTD SVG 1.1//EN" "http://www.w3.org/Graphics/SVG/1.1/DTD/svg11.dtd">
<svg width="100%" height="100%" viewBox="0 0 286 200" version="1.1" xmlns="http://www.w3.org/2000/svg" xmlns:xlink="http://www.w3.org/1999/xlink" xml:space="preserve" xmlns:serif="http://www.serif.com/" style="fill-rule:evenodd;clip-rule:evenodd;stroke-miterlimit:10;">
    <g id="Layer-1" serif:id="Layer 1" transform="matrix(0.909312,0,0,0.909312,-8.60319,-5.94157)">
        <g transform="matrix(1,0,0,1,263.858,56.4148)">
            <path d="M0,126.115L0,3.302C0,1.484 -1.592,0 -3.539,0L-185.735,0C-187.682,0 -189.274,1.484 -189.274,3.302L-189.274,126.115L0,126.115Z" style="fill:white;fill-rule:nonzero;stroke:rgb(52,82,92);stroke-width:2.2px;"/>
        </g>
        <g transform="matrix(0,-1,-1,0,80.8248,59.9162)">
            <path d="M-1.974,-1.975C-3.067,-1.975 -3.951,-1.091 -3.951,0.001C-3.951,1.092 -3.067,1.974 -1.974,1.974C-0.882,1.974 0.002,1.092 0.002,0.001C0.002,-1.091 -0.882,-1.975 -1.974,-1.975" style="fill:white;fill-rule:nonzero;"/>
        </g>
        <g transform="matrix(0,-1,-1,0,80.8248,59.9162)">
            <ellipse cx="-1.974" cy="-0" rx="1.976" ry="1.974" style="fill:none;stroke:rgb(52,82,92);stroke-width:2.2px;"/>
        </g>
        <g transform="matrix(0,-1,-1,0,94.0943,59.9142)">
            <path d="M-1.976,-1.977C-3.069,-1.977 -3.953,-1.092 -3.953,0.001C-3.953,1.091 -3.069,1.976 -1.976,1.976C-0.884,1.976 0,1.091 0,0.001C0,-1.092 -0.884,-1.977 -1.976,-1.977" style="fill:white;fill-rule:nonzero;"/>
        </g>
        <g transform="matrix(0,-1,-1,0,94.0943,59.9142)">
            <circle cx="-1.976" cy="-0" r="1.976" style="fill:none;stroke:rgb(52,82,92);stroke-width:2.2px;"/>
        </g>
        <g transform="matrix(0,-1,-1,0,87.4595,59.9132)">
            <path d="M-1.977,-1.978C-3.07,-1.978 -3.954,-1.092 -3.954,0C-3.954,1.091 -3.07,1.977 -1.977,1.977C-0.885,1.977 -0.001,1.091 -0.001,0C-0.001,-1.092 -0.885,-1.978 -1.977,-1.978" style="fill:white;fill-rule:nonzero;"/>
        </g>
        <g transform="matrix(0,-1,-1,0,87.4595,59.9132)">
            <ellipse cx="-1.977" cy="-0" rx="1.976" ry="1.977" style="fill:none;stroke:rgb(52,82,92);stroke-width:2.2px;"/>
        </g>
        <g transform="matrix(1,0,0,1,242.043,62.0802)">
            <path d="M0,4.519L-138.348,4.519C-139.126,4.519 -139.759,3.883 -139.759,3.107L-139.759,1.413C-139.759,0.636 -139.126,0 -138.348,0L0,0C0.776,0 1.413,0.636 1.413,1.413L1.413,3.107C1.413,3.883 0.776,4.519 0,4.519Z" style="fill:white;fill-rule:nonzero;stroke:rgb(52,82,92);stroke-width:2.2px;"/>
        </g>
        <g transform="matrix(-1,0,0,1,338.443,15.803)">
            <rect x="78.73" y="56.206" width="180.983" height="106.975" style="fill:white;stroke:rgb(52,82,92);stroke-width:2.2px;"/>
        </g>
        <g transform="matrix(1,0,0,1,0,-10.728)">
            <rect x="175.95" y="107.408" width="76.813" height="31.102" style="fill:white;stroke:rgb(52,82,92);stroke-width:2.2px;"/>
        </g>
        <g transform="matrix(1,0,0,1,0,-10.736)">
            <rect x="132.328" y="107.412" width="34.374" height="31.102" style="fill:rgb(132,219,255);"/>
        </g>
        <g transform="matrix(1,0,0,1,0,70.874)">
            <rect x="132.328" y="66.606" width="34.374" height="31.104" style="fill:white;stroke:rgb(52,82,92);stroke-width:2.2px;"/>
        </g>
        <g transform="matrix(0.213134,0,0,0.213134,160.982,152.612)">
            <path d="M0,7.86C-0.125,9.192 -0.159,9.189 -1.463,9.176C-2.866,9.164 -4.264,9.188 -5.634,9.564C-8.162,10.258 -10.231,11.558 -11.854,13.693C-13.544,15.916 -15.005,18.191 -15.423,21.01C-15.476,21.365 -15.584,21.724 -15.736,22.049C-16.946,24.628 -17.501,27.34 -17.551,30.184C-17.586,32.112 -17.993,33.998 -18.557,35.838C-19.142,37.748 -18.97,39.555 -17.855,41.197C-17.362,41.925 -17.637,42.249 -18.169,42.714C-24.003,47.802 -30.62,51.491 -38.018,53.742C-68.834,63.114 -100.992,43.698 -106.974,12.055C-109.301,-0.25 -107.477,-12.002 -101.75,-23.142C-101.613,-23.41 -101.456,-23.667 -101.263,-24.013C-99.076,-21.139 -95.989,-19.264 -93.929,-16.358C-92.837,-14.817 -91.247,-13.792 -89.502,-13.021C-87.401,-12.094 -86.835,-10.388 -87.897,-8.342C-88.086,-7.977 -88.341,-7.642 -88.579,-7.303C-89.905,-5.407 -90.118,-3.416 -89.227,-1.262C-88.219,1.177 -86.527,3.155 -84.999,5.245C-84.233,6.291 -83.433,7.319 -82.436,8.164C-80.167,10.086 -79.474,12.574 -79.798,15.434C-80.044,17.603 -80.18,19.776 -80.065,21.96C-79.935,24.432 -79.375,26.785 -78.157,28.953C-77.345,30.398 -76.537,31.854 -75.626,33.239C-74.143,35.493 -73.253,37.953 -72.844,40.601C-72.598,42.19 -72.396,43.786 -72.154,45.377C-72.053,46.042 -71.935,46.709 -71.765,47.359C-71.113,49.843 -69.762,51.147 -67.731,51.294C-65.21,51.475 -62.821,50.126 -61.892,47.979C-61.748,47.647 -61.631,47.299 -61.536,46.951C-60.633,43.631 -59.208,40.525 -57.669,37.463C-56.106,34.346 -54.838,31.123 -54.268,27.655C-54.071,26.464 -54.1,25.271 -54.145,24.083C-54.27,20.754 -53.442,17.601 -52.444,14.48C-51.959,12.967 -51.025,11.711 -49.924,10.593C-48.869,9.522 -47.736,8.527 -46.665,7.47C-44.02,4.861 -44.448,1.674 -47.576,-0.332C-49.661,-1.667 -51.973,-2.13 -54.332,-2.497C-55.979,-2.753 -57.59,-3.123 -59.158,-3.684C-60.978,-4.335 -62.838,-4.766 -64.787,-4.741C-65.868,-4.726 -66.812,-5.075 -67.612,-5.836C-68.288,-6.479 -69.027,-7.055 -69.712,-7.691C-70.946,-8.838 -71.066,-9.859 -70.066,-11.251C-68.642,-13.236 -67.123,-15.146 -65.237,-16.724C-63.624,-18.074 -62.396,-19.739 -61.256,-21.482C-60.08,-23.28 -60.109,-25.084 -61.204,-26.9C-62.108,-28.401 -63.267,-29.627 -64.912,-30.328C-65.389,-30.531 -65.863,-30.741 -66.334,-30.955C-68.104,-31.763 -69.018,-32.822 -68.745,-34.982C-68.608,-36.054 -68.393,-37.121 -68.586,-38.23C-68.923,-40.17 -69.724,-41.89 -70.878,-43.452C-71.988,-44.953 -73.15,-46.414 -74.289,-47.893C-68.125,-52.268 -48.239,-53.51 -39.326,-50.049C-42.451,-46.502 -44.201,-42.091 -46.969,-38.335C-47.213,-38.003 -47.396,-37.625 -47.608,-37.268C-49.308,-34.404 -49.218,-31.689 -47.429,-28.789C-45.815,-26.178 -43.829,-24.837 -40.706,-25.005C-38.175,-25.141 -35.625,-25.091 -33.101,-24.641C-30.582,-24.191 -28.383,-24.971 -26.479,-26.628C-25.812,-27.206 -25.142,-27.784 -24.526,-28.413C-23.578,-29.386 -22.551,-30.253 -21.377,-30.935C-19.145,-32.231 -17.443,-33.972 -16.647,-36.488C-16.603,-36.627 -16.479,-36.741 -16.379,-36.887C-15.904,-36.851 -15.699,-36.453 -15.432,-36.18C-6.123,-26.638 -0.902,-15.241 0.158,-1.932C0.419,1.345 0.311,4.602 0,7.86M-15.567,40.278C-16.486,39.22 -16.65,38.118 -16.307,36.989C-15.409,34.047 -14.89,31.053 -14.837,27.975C-14.822,27.041 -14.597,26.119 -14.229,25.258C-13.431,23.397 -13.104,21.36 -12.332,19.525C-10.089,14.19 -6.843,11.071 -0.593,11.883C-2.764,22.905 -7.694,32.316 -15.567,40.278M-98.431,-28.645C-93.205,-36.241 -86.474,-42.116 -78.266,-46.306C-77.896,-46.494 -77.514,-46.658 -77.149,-46.855C-76.827,-47.03 -76.574,-47.004 -76.348,-46.697C-74.903,-44.736 -73.271,-42.909 -72.103,-40.751C-71.292,-39.252 -70.863,-37.678 -71.207,-35.96C-71.247,-35.758 -71.238,-35.546 -71.253,-35.339C-71.521,-31.788 -70.435,-29.939 -67.124,-28.521C-65.66,-27.895 -64.336,-27.174 -63.483,-25.753C-62.857,-24.711 -62.785,-23.734 -63.49,-22.708C-64.462,-21.294 -65.444,-19.891 -66.773,-18.778C-68.859,-17.031 -70.568,-14.944 -72.142,-12.744C-73.945,-10.225 -73.644,-7.778 -71.328,-5.694C-71.25,-5.624 -71.166,-5.562 -71.094,-5.487C-69,-3.306 -66.607,-1.861 -63.416,-2.082C-62.449,-2.149 -61.474,-1.788 -60.545,-1.443C-58.296,-0.607 -55.967,-0.12 -53.6,0.227C-51.895,0.477 -50.257,0.925 -48.809,1.933C-47.225,3.034 -47.072,4.275 -48.446,5.631C-49.517,6.689 -50.642,7.692 -51.706,8.756C-53.425,10.479 -54.634,12.511 -55.273,14.871C-56.047,17.728 -56.883,20.592 -56.672,23.589C-56.394,27.564 -57.666,31.154 -59.166,34.71C-59.307,35.045 -59.484,35.363 -59.647,35.686C-61.371,39.118 -63.041,42.576 -64.007,46.315C-64.385,47.776 -65.361,48.46 -66.757,48.691C-67.974,48.892 -68.628,48.535 -69.065,47.384C-69.417,46.459 -69.582,45.485 -69.687,44.502C-69.906,42.436 -70.243,40.388 -70.681,38.36C-71.11,36.368 -71.852,34.492 -72.94,32.76C-73.576,31.749 -74.172,30.715 -74.821,29.714C-76.804,26.658 -77.81,23.342 -77.554,19.678C-77.43,17.711 -77.216,15.745 -77.202,13.777C-77.182,11.124 -78.092,8.766 -80.05,6.936C-82.35,4.788 -84.099,2.218 -85.867,-0.343C-86.217,-0.851 -86.473,-1.428 -86.747,-1.985C-87.458,-3.428 -87.323,-4.778 -86.33,-6.064C-85.206,-7.52 -84.702,-9.158 -84.913,-11.018C-85.125,-12.879 -85.985,-14.308 -87.719,-15.006C-89.972,-15.912 -91.671,-17.42 -93.116,-19.316C-94.091,-20.596 -95.183,-21.774 -96.499,-22.737C-97.122,-23.193 -97.698,-23.74 -98.202,-24.326C-99.71,-26.08 -99.727,-26.763 -98.431,-28.645M-35.795,-49.072C-29.667,-46.898 -24.12,-43.719 -19.112,-39.579C-18.605,-39.161 -18.465,-38.815 -18.699,-38.137C-19.456,-35.935 -20.688,-34.187 -22.784,-33.062C-24.115,-32.347 -25.251,-31.348 -26.295,-30.249C-27.046,-29.458 -27.864,-28.741 -28.755,-28.105C-29.765,-27.384 -30.849,-26.972 -32.112,-27.083C-35.29,-27.794 -38.522,-27.531 -41.733,-27.614C-43.062,-27.649 -43.919,-28.202 -44.655,-29.29C-46.813,-32.48 -46.946,-33.721 -44.814,-36.925C-43.114,-39.477 -41.606,-42.133 -40.114,-44.804C-39.326,-46.214 -38.417,-47.532 -37.299,-48.706C-36.858,-49.168 -36.452,-49.305 -35.795,-49.072M-52.764,-54.687C-84.36,-55.254 -110.279,-29.994 -110.46,1.553C-110.641,33.131 -85.373,58.56 -53.916,58.636C-23.062,58.713 2.625,33.963 2.855,2.39C3.084,-29.097 -22.042,-54.136 -52.764,-54.687" style="fill:rgb(132,219,255);fill-rule:nonzero;stroke:rgb(132,219,255);stroke-width:5.26px;stroke-linejoin:round;stroke-miterlimit:2;"/>
        </g>
        <g transform="matrix(1,0,0,1,0,-40.411)">
            <rect x="86.601" y="137.087" width="37.378" height="1.427" style="fill:white;stroke:rgb(52,82,92);stroke-width:2.2px;"/>
        </g>
        <g transform="matrix(-1,0,0,1,210.58,-29.409)">
            <rect x="86.601" y="131.586" width="37.378" height="1.427" style="fill:white;stroke:rgb(52,82,92);stroke-width:2.2px;"/>
        </g>
        <g transform="matrix(-1,0,0,1,210.58,-18.409)">
            <rect x="86.601" y="126.086" width="37.378" height="1.427" style="fill:white;stroke:rgb(52,82,92);stroke-width:2.2px;"/>
        </g>
        <g transform="matrix(-1,0,0,1,210.58,-7.408)">
            <rect x="86.601" y="120.585" width="37.378" height="1.428" style="fill:white;stroke:rgb(52,82,92);stroke-width:2.2px;"/>
        </g>
        <g transform="matrix(-1,0,0,1,210.58,14.597)">
            <rect x="86.601" y="109.583" width="37.378" height="1.427" style="fill:white;stroke:rgb(52,82,92);stroke-width:2.2px;"/>
        </g>
        <g transform="matrix(-1,0,0,1,210.58,25.599)">
            <rect x="86.601" y="104.082" width="37.378" height="1.427" style="fill:white;stroke:rgb(52,82,92);stroke-width:2.2px;"/>
        </g>
        <g transform="matrix(-1,0,0,1,210.58,36.6)">
            <rect x="86.601" y="98.581" width="37.378" height="1.428" style="fill:white;stroke:rgb(52,82,92);stroke-width:2.2px;"/>
        </g>
        <g transform="matrix(1,0,0,1,0,58.603)">
            <rect x="86.601" y="87.58" width="37.378" height="1.427" style="fill:white;stroke:rgb(52,82,92);stroke-width:2.2px;"/>
        </g>
        <g transform="matrix(-1,0,0,1,428.299,36.91)">
            <rect x="175.951" y="98.426" width="76.397" height="1.428" style="fill:white;stroke:rgb(52,82,92);stroke-width:2.2px;"/>
        </g>
        <g transform="matrix(-1,0,0,1,428.299,47.913)">
            <rect x="175.951" y="92.925" width="76.397" height="1.427" style="fill:white;stroke:rgb(52,82,92);stroke-width:2.2px;"/>
        </g>
        <g transform="matrix(-1,0,0,1,428.299,69.915)">
            <rect x="175.951" y="81.924" width="76.397" height="1.427" style="fill:white;stroke:rgb(52,82,92);stroke-width:2.2px;"/>
        </g>
        <g transform="matrix(-1,0,0,1,428.299,80.916)">
            <rect x="175.951" y="76.423" width="76.397" height="1.428" style="fill:white;stroke:rgb(52,82,92);stroke-width:2.2px;"/>
        </g>
        <g transform="matrix(1,0,0,1,0,102.919)">
            <rect x="175.95" y="65.422" width="76.397" height="1.427" style="fill:white;stroke:rgb(52,82,92);stroke-width:2.2px;"/>
        </g>
        <g transform="matrix(-1,0,0,1,464.571,-69.286)">
            <rect x="213.496" y="147.55" width="37.579" height="9.376" style="fill:rgb(237,238,241);"/>
        </g>
        <g transform="matrix(-1,0,0,1,292.203,-69.285)">
            <rect x="85.677" y="149.415" width="120.849" height="5.645" style="fill:white;stroke:rgb(52,82,92);stroke-width:2.2px;"/>
        </g>
        <g transform="matrix(-1,0,0,1,495.068,-69.286)">
            <rect x="242.611" y="147.55" width="9.846" height="9.376" style="fill:rgb(132,219,255);"/>
        </g>
        <g transform="matrix(1,0,0,1,247.686,82.5194)">
            <path d="M0,0.28C-0.494,-0.215 -0.494,-1.018 0,-1.512C0.494,-2.007 1.295,-2.007 1.792,-1.512C2.288,-1.018 2.288,-0.215 1.792,0.28C1.295,0.776 0.494,0.776 0,0.28M2.251,0.736C2.996,-0.012 2.996,-1.222 2.251,-1.969C1.502,-2.717 0.292,-2.717 -0.458,-1.969C-1.102,-1.324 -1.189,-0.333 -0.719,0.408L-2.553,2.244C-2.715,2.404 -2.715,2.672 -2.553,2.834C-2.391,2.997 -2.125,2.997 -1.96,2.834L-0.13,1C0.613,1.469 1.604,1.383 2.251,0.736" style="fill:white;fill-rule:nonzero;"/>
        </g>
        <g transform="matrix(1,0,0,1,0,176.465)">
            <rect x="185.989" y="28.332" width="15.758" height="2.061" style="fill:rgb(52,82,92);"/>
        </g>
        <g transform="matrix(1,0,0,1,0,185.723)">
            <rect x="158.999" y="23.703" width="50.626" height="2.061" style="fill:rgb(52,82,92);"/>
        </g>
        <g transform="matrix(-1,0,0,1,563.611,20.805)">
            <rect x="276.949" y="102.337" width="9.713" height="9.711" style="fill:white;stroke:rgb(52,82,92);stroke-width:2.2px;"/>
        </g>
        <g transform="matrix(-1,0,0,1,372.654,-157.679)">
            <rect x="190.934" y="191.579" width="9.713" height="9.711" style="fill:white;stroke:rgb(52,82,92);stroke-width:2.2px;"/>
        </g>
        <g transform="matrix(-1,0,0,1,507.831,-178.897)">
            <rect x="190.934" y="191.579" width="9.713" height="9.711" style="fill:white;stroke:rgb(52,82,92);stroke-width:2.2px;"/>
        </g>
        <g transform="matrix(-1,0,0,1,311.182,-86.0306)">
            <rect x="25.071" y="122.964" width="1.291" height="3.869" style="fill:rgb(52,82,92);"/>
        </g>
        <g transform="matrix(1,0,0,1,259.749,-78.7276)">
            <rect x="27.019" y="120.602" width="3.869" height="1.29" style="fill:rgb(52,82,92);"/>
        </g>
        <g transform="matrix(1,0,0,1,259.749,-71.4246)">
            <rect x="25.071" y="115.661" width="1.291" height="3.869" style="fill:rgb(52,82,92);"/>
        </g>
        <g transform="matrix(-1,0,0,1,304.711,-78.7276)">
            <rect x="20.546" y="120.602" width="3.87" height="1.29" style="fill:rgb(52,82,92);"/>
        </g>
        <g transform="matrix(-1,0,0,1,428.714,151.609)">
            <rect x="213.712" y="39.856" width="1.29" height="3.869" style="fill:rgb(52,82,92);"/>
        </g>
        <g transform="matrix(1,0,0,1,0,158.912)">
            <rect x="215.658" y="37.494" width="3.869" height="1.29" style="fill:rgb(52,82,92);"/>
        </g>
        <g transform="matrix(1,0,0,1,0,166.213)">
            <rect x="213.712" y="32.554" width="1.29" height="3.869" style="fill:rgb(52,82,92);"/>
        </g>
        <g transform="matrix(-1,0,0,1,422.242,158.912)">
            <rect x="209.186" y="37.494" width="3.87" height="1.29" style="fill:rgb(52,82,92);"/>
        </g>
        <g transform="matrix(-1,0,0,1,87.045,-69.265)">
            <rect x="29.301" y="151.197" width="28.443" height="2.061" style="fill:rgb(52,82,92);"/>
        </g>
        <g transform="matrix(-1,0,0,1,79.32,-50.555)">
            <rect x="29.301" y="141.842" width="20.718" height="2.061" style="fill:rgb(52,82,92);"/>
        </g>
        <g transform="matrix(-1,0,0,1,85.15,-60.007)">
            <rect x="20.078" y="146.568" width="44.994" height="2.061" style="fill:rgb(52,82,92);"/>
        </g>
        <g transform="matrix(-1,0,0,1,73.406,178.441)">
            <rect x="22.481" y="27.344" width="28.444" height="2.061" style="fill:rgb(52,82,92);"/>
        </g>
        <g transform="matrix(-1,0,0,1,65.679,197.153)">
            <rect x="22.48" y="17.988" width="20.719" height="2.061" style="fill:rgb(52,82,92);"/>
        </g>
        <g transform="matrix(-1,0,0,1,71.509,187.699)">
            <rect x="13.257" y="22.715" width="44.995" height="2.061" style="fill:rgb(52,82,92);"/>
        </g>
        <g transform="matrix(-1,0,0,1,623.776,14.347)">
            <rect x="311.243" y="108.487" width="1.29" height="3.869" style="fill:rgb(52,82,92);"/>
        </g>
        <g transform="matrix(1,0,0,1,0,21.648)">
            <rect x="313.189" y="106.126" width="3.869" height="1.29" style="fill:rgb(52,82,92);"/>
        </g>
        <g transform="matrix(1,0,0,1,0,28.951)">
            <rect x="311.243" y="101.185" width="1.29" height="3.869" style="fill:rgb(52,82,92);"/>
        </g>
        <g transform="matrix(-1,0,0,1,617.304,21.648)">
            <rect x="306.717" y="106.126" width="3.87" height="1.29" style="fill:rgb(52,82,92);"/>
        </g>
        <g transform="matrix(-1,0,0,1,337.803,-193.501)">
            <rect x="177.72" y="212.411" width="1.29" height="3.869" style="fill:rgb(52,82,92);"/>
        </g>
        <g transform="matrix(1,0,0,1,-18.927,-186.2)">
            <rect x="179.666" y="210.05" width="3.869" height="1.29" style="fill:rgb(52,82,92);"/>
        </g>
        <g transform="matrix(1,0,0,1,-18.927,-178.897)">
            <rect x="177.72" y="205.109" width="1.29" height="3.869" style="fill:rgb(52,82,92);"/>
        </g>
        <g transform="matrix(-1,0,0,1,331.328,-186.2)">
            <rect x="173.193" y="210.05" width="3.869" height="1.29" style="fill:rgb(52,82,92);"/>
        </g>
        <g transform="matrix(1,0,0,1,318.2,148.489)">
            <path d="M0,72.493L0,3.302C0,1.484 -1.591,0 -3.538,0L-86.55,0C-88.496,0 -90.089,1.484 -90.089,3.302L-90.089,72.493L0,72.493Z" style="fill:white;fill-rule:nonzero;stroke:rgb(52,82,92);stroke-width:2.2px;"/>
        </g>
        <g transform="matrix(0,-1,-1,0,234.352,151.99)">
            <path d="M-1.974,-1.975C-3.068,-1.975 -3.951,-1.092 -3.951,0.002C-3.951,1.092 -3.068,1.974 -1.974,1.974C-0.882,1.974 0.002,1.092 0.002,0.002C0.002,-1.092 -0.882,-1.975 -1.974,-1.975" style="fill:white;fill-rule:nonzero;"/>
        </g>
        <g transform="matrix(0,-1,-1,0,234.352,151.99)">
            <ellipse cx="-1.975" cy="-0" rx="1.976" ry="1.975" style="fill:none;stroke:rgb(52,82,92);stroke-width:2.2px;"/>
        </g>
        <g transform="matrix(0,-1,-1,0,247.622,151.988)">
            <path d="M-1.976,-1.977C-3.069,-1.977 -3.953,-1.092 -3.953,0C-3.953,1.091 -3.069,1.976 -1.976,1.976C-0.884,1.976 0,1.091 0,0C0,-1.092 -0.884,-1.977 -1.976,-1.977" style="fill:white;fill-rule:nonzero;"/>
        </g>
        <g transform="matrix(0,-1,-1,0,247.622,151.988)">
            <circle cx="-1.976" cy="-0" r="1.976" style="fill:none;stroke:rgb(52,82,92);stroke-width:2.2px;"/>
        </g>
        <g transform="matrix(0,-1,-1,0,240.987,151.987)">
            <path d="M-1.977,-1.978C-3.07,-1.978 -3.954,-1.092 -3.954,0C-3.954,1.092 -3.07,1.977 -1.977,1.977C-0.885,1.977 -0.001,1.092 -0.001,0C-0.001,-1.092 -0.885,-1.978 -1.977,-1.978" style="fill:white;fill-rule:nonzero;"/>
        </g>
        <g transform="matrix(0,-1,-1,0,240.987,151.987)">
            <ellipse cx="-1.977" cy="-0" rx="1.976" ry="1.977" style="fill:none;stroke:rgb(52,82,92);stroke-width:2.2px;"/>
        </g>
        <g transform="matrix(1,0,0,1,306.386,154.154)">
            <path d="M0,4.519L-49.163,4.519C-49.94,4.519 -50.575,3.883 -50.575,3.107L-50.575,1.413C-50.575,0.636 -49.94,0 -49.163,0L0,0C0.777,0 1.414,0.636 1.414,1.413L1.414,3.107C1.414,3.883 0.777,4.519 0,4.519Z" style="fill:white;fill-rule:nonzero;stroke:rgb(52,82,92);stroke-width:2.2px;"/>
        </g>
        <g transform="matrix(-1,0,0,1,546.313,146.329)">
            <rect x="232.257" y="17.754" width="81.799" height="53.353" style="fill:white;stroke:rgb(52,82,92);stroke-width:2.2px;"/>
        </g>
        <g transform="matrix(1,0,0,1,125.845,122.521)">
            <path d="M0,72.493L0,3.302C0,1.484 -1.592,0 -3.539,0L-86.552,0C-88.497,0 -90.09,1.484 -90.09,3.302L-90.09,72.493L0,72.493Z" style="fill:white;fill-rule:nonzero;stroke:rgb(52,82,92);stroke-width:2.2px;"/>
        </g>
        <g transform="matrix(0,-1,-1,0,41.9952,126.023)">
            <path d="M-1.974,-1.974C-3.067,-1.974 -3.951,-1.092 -3.951,0C-3.951,1.092 -3.067,1.974 -1.974,1.974C-0.881,1.974 0.002,1.092 0.002,0C0.002,-1.092 -0.881,-1.974 -1.974,-1.974" style="fill:white;fill-rule:nonzero;"/>
        </g>
        <g transform="matrix(0,-1,-1,0,41.9952,126.023)">
            <ellipse cx="-1.974" cy="-0" rx="1.976" ry="1.974" style="fill:none;stroke:rgb(52,82,92);stroke-width:2.2px;"/>
        </g>
        <g transform="matrix(0,-1,-1,0,55.2652,126.021)">
            <path d="M-1.976,-1.977C-3.069,-1.977 -3.953,-1.092 -3.953,0C-3.953,1.091 -3.069,1.976 -1.976,1.976C-0.884,1.976 0,1.091 0,0C0,-1.092 -0.884,-1.977 -1.976,-1.977" style="fill:white;fill-rule:nonzero;"/>
        </g>
        <g transform="matrix(0,-1,-1,0,55.2652,126.021)">
            <circle cx="-1.976" cy="-0" r="1.976" style="fill:none;stroke:rgb(52,82,92);stroke-width:2.2px;"/>
        </g>
        <g transform="matrix(0,-1,-1,0,48.6304,126.02)">
            <path d="M-1.977,-1.978C-3.07,-1.978 -3.954,-1.092 -3.954,0C-3.954,1.091 -3.07,1.977 -1.977,1.977C-0.885,1.977 -0.001,1.091 -0.001,0C-0.001,-1.092 -0.885,-1.978 -1.977,-1.978" style="fill:white;fill-rule:nonzero;"/>
        </g>
        <g transform="matrix(0,-1,-1,0,48.6304,126.02)">
            <ellipse cx="-1.977" cy="-0" rx="1.976" ry="1.977" style="fill:none;stroke:rgb(52,82,92);stroke-width:2.2px;"/>
        </g>
        <g transform="matrix(1,0,0,1,114.03,128.187)">
            <path d="M0,4.519L-49.163,4.519C-49.941,4.519 -50.575,3.883 -50.575,3.107L-50.575,1.413C-50.575,0.636 -49.941,0 -49.163,0L0,0C0.776,0 1.413,0.636 1.413,1.413L1.413,3.107C1.413,3.883 0.776,4.519 0,4.519Z" style="fill:white;fill-rule:nonzero;stroke:rgb(52,82,92);stroke-width:2.2px;"/>
        </g>
        <g transform="matrix(-1,0,0,1,161.599,94.393)">
            <rect x="39.9" y="43.722" width="81.799" height="53.353" style="fill:white;stroke:rgb(52,82,92);stroke-width:2.2px;"/>
        </g>
        <g transform="matrix(1,0,0,1,0,-0.0029837)">
            <g transform="matrix(5.87521,0,0,0.1509,304.115,172.077)">
                <path d="M0,33.175L-8.42,33.175C-8.624,33.175 -8.776,33.022 -8.776,32.817L-8.776,0.359C-8.776,0.154 -8.624,0 -8.42,0L0,0C0.204,0 0.357,0.154 0.357,0.359L0.357,32.817C0.357,33.004 0.204,33.175 0,33.175" style="fill:rgb(52,82,92);fill-rule:nonzero;"/>
            </g>
            <g transform="matrix(1,0,0,0.304301,248.916,172.077)">
                <path d="M0,16.715L-8.416,16.715C-8.621,16.715 -8.775,16.562 -8.775,16.357L-8.775,0.358C-8.775,0.153 -8.621,0 -8.416,0L0,0C0.205,0 0.357,0.153 0.357,0.358L0.357,16.357C0.357,16.544 0.188,16.715 0,16.715" style="fill:rgb(52,82,92);fill-rule:nonzero;"/>
            </g>
        </g>
        <g transform="matrix(1,0,0,1,0,-1.78808)">
            <g transform="matrix(5.87521,0,0,0.1509,304.115,184.624)">
                <path d="M0,33.175L-8.42,33.175C-8.624,33.175 -8.776,33.022 -8.776,32.817L-8.776,0.359C-8.776,0.154 -8.624,0 -8.42,0L0,0C0.204,0 0.357,0.154 0.357,0.359L0.357,32.817C0.357,33.004 0.204,33.175 0,33.175" style="fill:rgb(132,219,255);fill-rule:nonzero;"/>
            </g>
            <g transform="matrix(1,0,0,0.304301,248.916,184.624)">
                <path d="M0,16.715L-8.416,16.715C-8.621,16.715 -8.775,16.562 -8.775,16.357L-8.775,0.358C-8.775,0.153 -8.621,0 -8.416,0L0,0C0.205,0 0.357,0.153 0.357,0.358L0.357,16.357C0.357,16.544 0.188,16.715 0,16.715" style="fill:rgb(132,219,255);fill-rule:nonzero;"/>
            </g>
        </g>
        <g transform="matrix(1,0,0,1,0,-0.0539863)">
            <g transform="matrix(5.87521,0,0,0.1509,304.115,193.651)">
                <path d="M0,33.175L-8.42,33.175C-8.624,33.175 -8.776,33.022 -8.776,32.817L-8.776,0.359C-8.776,0.154 -8.624,0 -8.42,0L0,0C0.204,0 0.357,0.154 0.357,0.359L0.357,32.817C0.357,33.004 0.204,33.175 0,33.175" style="fill:rgb(52,82,92);fill-rule:nonzero;"/>
            </g>
            <g transform="matrix(1,0,0,0.304301,248.916,193.651)">
                <path d="M0,16.715L-8.416,16.715C-8.621,16.715 -8.775,16.562 -8.775,16.357L-8.775,0.358C-8.775,0.153 -8.621,0 -8.416,0L0,0C0.205,0 0.357,0.153 0.357,0.358L0.357,16.357C0.357,16.544 0.188,16.715 0,16.715" style="fill:rgb(52,82,92);fill-rule:nonzero;"/>
            </g>
        </g>
        <g transform="matrix(1,0,0,1,0,-0.0029837)">
            <g transform="matrix(5.87521,0,0,0.1509,304.115,204.362)">
                <path d="M0,33.175L-8.42,33.175C-8.624,33.175 -8.776,33.022 -8.776,32.817L-8.776,0.359C-8.776,0.154 -8.624,0 -8.42,0L0,0C0.204,0 0.357,0.154 0.357,0.359L0.357,32.817C0.357,33.004 0.204,33.175 0,33.175" style="fill:rgb(52,82,92);fill-rule:nonzero;"/>
            </g>
            <g transform="matrix(1,0,0,0.304301,248.916,204.362)">
                <path d="M0,16.715L-8.416,16.715C-8.621,16.715 -8.775,16.562 -8.775,16.357L-8.775,0.358C-8.775,0.153 -8.621,0 -8.416,0L0,0C0.205,0 0.357,0.153 0.357,0.358L0.357,16.357C0.357,16.544 0.188,16.715 0,16.715" style="fill:rgb(52,82,92);fill-rule:nonzero;"/>
            </g>
        </g>
        <g transform="matrix(0,-1,-1,0,55.004,174.112)">
            <path d="M-1.322,-2.371C-2.594,-2.371 -4.147,-1.545 -4.147,-0.523C-4.147,0.496 -2.594,1.322 -1.322,1.322C-0.049,1.322 0.454,0.496 0.454,-0.523C0.454,-1.545 -0.049,-2.371 -1.322,-2.371" style="fill:white;fill-rule:nonzero;"/>
        </g>
        <g transform="matrix(1,0,0,1,0,68.093)">
            <rect x="63.473" y="79.059" width="29.947" height="8.979" style="fill:white;stroke:rgb(52,82,92);stroke-width:2.2px;"/>
        </g>
        <g transform="matrix(1,0,0,1,0,68.08)">
            <rect x="64.97" y="80.569" width="21.456" height="5.972" style="fill:rgb(132,219,255);"/>
        </g>
        <g transform="matrix(1,0,0,1,0,95.647)">
            <rect x="63.473" y="65.282" width="29.947" height="8.979" style="fill:white;stroke:rgb(52,82,92);stroke-width:2.2px;"/>
        </g>
        <g transform="matrix(1,0,0,1,0,95.633)">
            <rect x="64.97" y="66.792" width="13.204" height="5.973" style="fill:rgb(132,219,255);"/>
        </g>
        <g transform="matrix(1,0,0,1,0,123.203)">
            <rect x="63.473" y="51.504" width="29.947" height="8.979" style="fill:white;stroke:rgb(52,82,92);stroke-width:2.2px;"/>
        </g>
        <g transform="matrix(1,0,0,1,0,123.189)">
            <rect x="64.97" y="53.014" width="17.009" height="5.973" style="fill:rgb(132,219,255);"/>
        </g>
        <g transform="matrix(1,0,0,1,-57.6768,-192.859)">
            <rect x="92.973" y="209.696" width="65.744" height="8.657" style="fill:white;stroke:rgb(52,82,92);stroke-width:2.2px;"/>
        </g>
        <g transform="matrix(1,0,0,1,-57.6768,-192.854)">
            <rect x="108.618" y="211.641" width="47.907" height="4.762" style="fill:rgb(132,219,255);"/>
        </g>
        <g transform="matrix(1,0,0,1,-57.6768,-160.903)">
            <rect x="92.973" y="193.718" width="65.744" height="8.657" style="fill:white;stroke:rgb(52,82,92);stroke-width:2.2px;"/>
        </g>
        <g transform="matrix(1,0,0,1,-57.6768,-160.902)">
            <rect x="125.844" y="195.665" width="30.681" height="4.762" style="fill:rgb(132,219,255);"/>
        </g>
        <g transform="matrix(1,0,0,1,83.3428,206.874)">
            <path d="M0,8.789C0,11.727 2.678,14.108 5.98,14.108L35.539,14.108C37.856,14.108 39.736,12.434 39.736,10.372C39.736,8.427 38.068,6.849 35.938,6.673C35.947,6.524 35.961,6.39 35.961,6.24C35.961,1.893 32,-1.622 27.115,-1.622C26.67,-1.622 26.232,-1.584 25.803,-1.524C23.803,-3.835 20.676,-5.319 17.155,-5.319C14.311,-5.319 11.729,-4.353 9.789,-2.77C7.842,-1.188 6.55,1.011 6.288,3.483C2.985,3.483 0,5.851 0,8.789" style="fill:rgb(132,219,255);fill-rule:nonzero;"/>
        </g>
        <g transform="matrix(1,0,0,1,319.875,99.5338)">
            <path d="M0,8.789C0,11.727 -2.678,14.108 -5.98,14.108L-35.539,14.108C-37.856,14.108 -39.736,12.434 -39.736,10.372C-39.736,8.427 -38.068,6.849 -35.938,6.673C-35.947,6.524 -35.961,6.39 -35.961,6.24C-35.961,1.893 -32,-1.622 -27.115,-1.622C-26.671,-1.622 -26.232,-1.584 -25.803,-1.524C-23.803,-3.835 -20.676,-5.319 -17.155,-5.319C-14.311,-5.319 -11.73,-4.353 -9.79,-2.77C-7.843,-1.188 -6.55,1.011 -6.288,3.483C-2.985,3.483 0,5.851 0,8.789" style="fill:rgb(132,219,255);fill-rule:nonzero;"/>
        </g>
        <g transform="matrix(1,0,0,1,249.273,17.3518)">
            <path d="M0,8.789C0,11.727 -2.678,14.108 -5.98,14.108L-35.539,14.108C-37.856,14.108 -39.736,12.434 -39.736,10.372C-39.736,8.427 -38.068,6.849 -35.938,6.673C-35.947,6.524 -35.961,6.39 -35.961,6.24C-35.961,1.893 -32,-1.622 -27.115,-1.622C-26.671,-1.622 -26.232,-1.584 -25.803,-1.524C-23.803,-3.835 -20.676,-5.319 -17.155,-5.319C-14.311,-5.319 -11.73,-4.353 -9.79,-2.77C-7.843,-1.188 -6.55,1.011 -6.288,3.483C-2.985,3.483 0,5.851 0,8.789" style="fill:rgb(132,219,255);fill-rule:nonzero;"/>
        </g>
        <g id="bi_check" transform="matrix(1,0,0,1,53.682,151.642)">
            <g transform="matrix(1,0,0,1,-8,-8)">
                <path d="M10.97,4.97C11.11,4.831 11.299,4.753 11.496,4.753C11.693,4.752 11.882,4.829 12.023,4.967C12.164,5.105 12.244,5.293 12.248,5.49C12.251,5.687 12.177,5.877 12.041,6.02L8.049,11.01C7.98,11.084 7.898,11.143 7.805,11.184C7.713,11.226 7.614,11.248 7.513,11.25C7.412,11.252 7.312,11.233 7.219,11.195C7.125,11.158 7.04,11.101 6.969,11.03L4.324,8.384C4.25,8.315 4.191,8.233 4.15,8.141C4.109,8.049 4.087,7.949 4.085,7.849C4.084,7.748 4.102,7.648 4.14,7.554C4.178,7.461 4.234,7.376 4.305,7.305C4.376,7.234 4.461,7.178 4.554,7.14C4.648,7.102 4.748,7.084 4.848,7.085C4.949,7.087 5.048,7.109 5.14,7.15C5.232,7.191 5.315,7.25 5.384,7.324L7.478,9.417L10.951,4.992C10.957,4.984 10.964,4.977 10.971,4.97L10.97,4.97Z" style="fill:rgb(132,219,255);"/>
            </g>
        </g>
        <g id="bi_check1" serif:id="bi_check" transform="matrix(1,0,0,1,53.682,165.418)">
            <g transform="matrix(1,0,0,1,-8,-8)">
                <path d="M10.97,4.97C11.11,4.831 11.299,4.753 11.496,4.753C11.693,4.752 11.882,4.829 12.023,4.967C12.164,5.105 12.244,5.293 12.248,5.49C12.251,5.687 12.177,5.877 12.041,6.02L8.049,11.01C7.98,11.084 7.898,11.143 7.805,11.184C7.713,11.226 7.614,11.248 7.513,11.25C7.412,11.252 7.312,11.233 7.219,11.195C7.125,11.158 7.04,11.101 6.969,11.03L4.324,8.384C4.25,8.315 4.191,8.233 4.15,8.141C4.109,8.049 4.087,7.949 4.085,7.849C4.084,7.748 4.102,7.648 4.14,7.554C4.178,7.461 4.234,7.376 4.305,7.305C4.376,7.234 4.461,7.178 4.554,7.14C4.648,7.102 4.748,7.084 4.848,7.085C4.949,7.087 5.048,7.109 5.14,7.15C5.232,7.191 5.315,7.25 5.384,7.324L7.478,9.417L10.951,4.992C10.957,4.984 10.964,4.977 10.971,4.97L10.97,4.97Z" style="fill:rgb(132,219,255);"/>
            </g>
        </g>
        <g id="bi_check2" serif:id="bi_check" transform="matrix(1,0,0,1,53.682,179.197)">
            <g transform="matrix(1,0,0,1,-8,-8)">
                <path d="M10.97,4.97C11.11,4.831 11.299,4.753 11.496,4.753C11.693,4.752 11.882,4.829 12.023,4.967C12.164,5.105 12.244,5.293 12.248,5.49C12.251,5.687 12.177,5.877 12.041,6.02L8.049,11.01C7.98,11.084 7.898,11.143 7.805,11.184C7.713,11.226 7.614,11.248 7.513,11.25C7.412,11.252 7.312,11.233 7.219,11.195C7.125,11.158 7.04,11.101 6.969,11.03L4.324,8.384C4.25,8.315 4.191,8.233 4.15,8.141C4.109,8.049 4.087,7.949 4.085,7.849C4.084,7.748 4.102,7.648 4.14,7.554C4.178,7.461 4.234,7.376 4.305,7.305C4.376,7.234 4.461,7.178 4.554,7.14C4.648,7.102 4.748,7.084 4.848,7.085C4.949,7.087 5.048,7.109 5.14,7.15C5.232,7.191 5.315,7.25 5.384,7.324L7.478,9.417L10.951,4.992C10.957,4.984 10.964,4.977 10.971,4.97L10.97,4.97Z" style="fill:rgb(132,219,255);"/>
            </g>
        </g>
    </g>
</svg>
